<svg width="160" height="35" viewBox="0 0 160 35" fill="none" xmlns="http://www.w3.org/2000/svg">
<g clip-path="url(#clip0_374_68)">
<path d="M57.048 3.24268C48.5894 3.24268 44.648 7.37601 43.7574 14.0533L50.3067 14.944C51.0054 10.6187 53.104 8.96534 56.7947 8.96534C60.928 8.96534 62.5814 11.192 62.5814 15.2613V16.4693H53.6774C46.1734 16.4693 42.8667 20.4133 42.8667 25.88C42.8667 31.3467 46.7467 34.4027 52.2774 34.4027C57.4294 34.4027 61.0534 31.6053 62.4534 26.2613H62.5814V33.7653H69.3867V15.2C69.3867 7.56801 65.6987 3.24534 57.048 3.24534V3.24268ZM62.5814 22.512C62.5814 26.136 59.528 28.808 54.824 28.808C50.944 28.808 49.6107 26.8987 49.6107 24.8C49.6107 22.7013 51.392 21.5573 54.6987 21.5573H62.584V22.512H62.5814Z" fill="white"/>
<path d="M123.627 12.464H123.563C122.227 6.296 118.856 3.05333 112.88 3.11467C105.376 3.05067 101.115 9.02933 101.115 18.9493C101.115 28.8693 105.12 34.5947 112.88 34.5947C118.667 34.5947 122.165 31.352 123.501 25.3093H123.629V33.768H130.499V0H123.629V12.464H123.627ZM123.627 19.1413C123.627 25.056 120.573 28.3627 115.677 28.3627C110.336 28.3627 107.917 24.928 107.917 18.952C107.917 12.976 110.461 9.22133 115.677 9.22133C120.573 9.22133 123.627 12.9093 123.627 18.6347V19.144V19.1413Z" fill="white"/>
<path d="M147.661 3.24268C139.203 3.24268 135.261 7.37601 134.371 14.0533L140.92 14.944C141.619 10.6187 143.717 8.96534 147.408 8.96534C151.541 8.96534 153.195 11.192 153.195 15.2613V16.4693H144.291C136.787 16.4693 133.48 20.4133 133.48 25.88C133.48 31.3467 137.36 34.4027 142.891 34.4027C148.043 34.4027 151.667 31.6053 153.067 26.2613H153.195V33.7653H160V15.2C160 7.56801 156.312 3.24534 147.661 3.24534V3.24268ZM153.195 22.512C153.195 26.136 150.141 28.808 145.437 28.808C141.557 28.808 140.224 26.8987 140.224 24.8C140.224 22.7013 142.005 21.5573 145.312 21.5573H153.197V22.512H153.195Z" fill="white"/>
<path d="M72.4747 14.1333C72.4747 18.584 74.8907 21.7653 79.344 23.1626L79.8533 23.2906C80.08 23.3573 80.3146 23.416 80.5493 23.472C75.768 24.864 72.488 28.4506 71.5146 33.7786H78.0267C79.032 30.5173 81.592 28.5706 85.3466 28.5706C89.1013 28.5706 91.64 30.5173 92.6586 33.7786H99.12C98.1467 28.4533 94.8747 24.864 90.12 23.472C94.9653 22.496 97.5333 19.9493 97.5333 15.9146C97.5333 11.88 94.736 10.3173 91.0453 9.61864V9.55464C93.144 9.68264 94.608 9.68264 96.0693 9.68264H99.9493V3.89331H85.3226C77.2453 3.89331 72.4773 7.58131 72.4773 14.1333H72.4747ZM91.616 14.5146C91.616 17.568 89.7706 19.4106 85.0666 19.4106C80.3626 19.4106 78.6453 17.504 78.6453 14.5146C78.6453 11.5253 80.4266 9.55464 85.0053 9.55464C89.584 9.55464 91.6187 11.4 91.6187 14.5146H91.616Z" fill="white"/>
<path d="M20.1493 25.8506H19.992L9.44533 3.97595H0V33.9013H7.34667V15.3733H7.504L16.424 33.6693H23.456L32.4293 15.3733H32.5867V33.9013H39.9333V3.97595H30.5387L20.1493 25.8506Z" fill="white"/>
</g>
<defs>
<clipPath id="clip0_374_68">
<rect width="160" height="34.5947" fill="white"/>
</clipPath>
</defs>
</svg>
